<svg width="1123" height="794" viewBox="0 0 1123 794" fill="none" xmlns="http://www.w3.org/2000/svg">
<path fill-rule="evenodd" clip-rule="evenodd" d="M332.455 409.741C328.278 408.125 330.058 402.96 329.541 400.359C329.022 397.759 326.426 397.523 326.387 395.906C326.348 394.291 328.043 393.937 327.924 393.031C327.807 392.122 325.677 392.438 324.614 390.073C323.55 387.71 325.28 386.054 325.28 384.32C325.28 382.586 320.911 381.245 320.515 378.171C320.346 376.859 322.104 374.686 324.153 372.139C326.905 368.721 330.19 364.635 330.054 361.068C329.986 359.299 329.818 356.994 329.61 354.603C328.927 353.723 328.425 352.683 328.172 351.526C327.781 349.736 328.047 347.949 328.808 346.416V346.413C329.511 345.006 330.283 343.642 331.116 342.318C330.376 341.4 329.839 340.303 329.578 339.104C328.664 334.927 331.335 330.756 335.512 329.839C336.686 329.582 337.886 329.606 339.023 329.883L339.494 329.428C338.879 325.172 341.674 321.06 345.941 320.126C348.393 319.587 350.908 320.208 352.817 321.689L353.107 321.598C353.981 318.835 356.279 316.623 359.251 315.972C363.084 315.131 366.912 317.121 368.533 320.526C369.259 320.491 369.99 320.474 370.725 320.474C373.808 320.474 376.822 320.772 379.739 321.341C381.783 321.079 383.785 321.65 385.363 322.809C392.406 325.125 398.71 329.064 403.832 334.187L419.885 318.135C407.304 305.553 389.924 297.772 370.725 297.772C332.329 297.772 301.206 328.899 301.206 367.294C301.206 404.018 329.681 434.092 365.757 436.638C364.431 425.869 360.051 416.911 355.943 411.732C353.5 408.649 351.152 406.902 349.6 406.902C348.684 406.902 347.62 407.079 346.469 407.347C341.834 408.433 335.804 411.036 332.455 409.741Z" fill="#ECB900"/>
<path fill-rule="evenodd" clip-rule="evenodd" d="M406.982 396.92C402.972 401.82 397.99 405.892 392.328 408.842C393.266 417.623 399.838 424.006 405.058 427.759C405.704 427.391 406.346 427.011 406.982 426.624C416.518 420.782 424.536 412.707 430.313 403.128V354.684H387.733V378.015H406.982V396.92Z" fill="#ECB900"/>
<path d="M377.356 363.943L368.176 358.568C367.696 359.028 367.088 359.368 366.39 359.522C364.617 359.909 362.866 358.97 362.167 357.368L354.849 358.986C354.701 360.343 353.706 361.515 352.298 361.824C350.64 362.188 349 361.221 348.489 359.638L343.687 359.584C343.415 360.655 342.56 361.536 341.408 361.789C339.78 362.146 338.172 361.115 337.815 359.487C337.588 358.447 337.927 357.414 338.626 356.712L337.121 353.661C336.965 353.717 336.8 353.764 336.634 353.801C334.46 354.277 332.31 352.899 331.834 350.725C331.359 348.552 332.736 346.403 334.909 345.925C335.103 345.884 335.298 345.856 335.491 345.843L336.159 341.342C334.74 340.969 333.575 339.834 333.24 338.302C332.764 336.129 334.142 333.98 336.315 333.504C337.588 333.225 338.853 333.582 339.778 334.36L343.769 330.52C343.54 330.123 343.369 329.686 343.265 329.215C342.727 326.756 344.283 324.327 346.741 323.788C348.733 323.353 350.703 324.29 351.666 325.967L356.488 324.478C356.291 322.229 357.79 320.13 360.053 319.635C362.514 319.097 364.941 320.653 365.479 323.112C365.573 323.531 365.603 323.95 365.579 324.359L377.146 327.167C377.691 326.16 378.655 325.386 379.862 325.122C382.061 324.64 384.231 326.032 384.713 328.229C385.076 329.883 384.378 331.524 383.072 332.438L384.462 337.701C385.945 337.927 387.205 339.041 387.547 340.595C387.989 342.61 386.712 344.602 384.698 345.043C384.415 345.105 384.133 345.133 383.857 345.13L381.595 351.859C382.272 352.376 382.778 353.129 382.975 354.026C383.351 355.742 382.482 357.44 380.973 358.179L381.347 361.392C382.884 361.573 384.207 362.706 384.555 364.302C384.996 366.317 383.721 368.308 381.706 368.749C379.693 369.19 377.701 367.915 377.258 365.9C377.111 365.227 377.157 364.555 377.356 363.943ZM364.684 335.883C366.11 335.571 367.523 336.02 368.505 336.957L377.105 330.959C376.95 330.655 376.831 330.324 376.753 329.974C376.662 329.558 376.639 329.146 376.672 328.746L365.186 325.954C364.612 327.226 363.469 328.218 362.003 328.538C359.9 328.998 357.817 327.924 356.923 326.065L352.215 327.52C352.368 328.462 352.215 329.392 351.831 330.2L362.516 337.11C363.08 336.512 363.822 336.072 364.684 335.883ZM369.447 338.304C369.557 338.554 369.644 338.823 369.707 339.102C370.204 341.376 368.764 343.625 366.487 344.124C366.436 344.135 366.384 344.145 366.332 344.154L365.815 352.145C367.342 352.236 368.694 353.262 369.158 354.767L375.633 354.27C375.767 353.383 376.216 352.575 376.887 351.995L375.003 349.196C374.836 349.259 374.664 349.308 374.484 349.349C372.471 349.79 370.481 348.515 370.037 346.5C369.596 344.485 370.872 342.493 372.887 342.053C374.901 341.612 376.893 342.887 377.334 344.902C377.613 346.167 377.211 347.423 376.377 348.293L378.348 351.222C378.406 351.205 378.467 351.189 378.528 351.176C379.062 351.06 379.594 351.064 380.097 351.17L382.255 344.749C381.268 344.263 380.503 343.351 380.25 342.194C379.831 340.282 380.96 338.39 382.798 337.826L381.55 333.093C380.296 333.35 379.056 333.001 378.138 332.244L369.447 338.304ZM364.687 344.126C363.127 343.784 361.83 342.567 361.465 340.907C361.283 340.072 361.361 339.243 361.644 338.5L350.867 331.532C350.283 332.094 349.542 332.505 348.692 332.691C347.28 333.001 345.877 332.62 344.837 331.772L340.794 335.662C340.934 335.947 341.043 336.254 341.114 336.578C341.589 338.753 340.214 340.901 338.04 341.378C337.962 341.395 337.884 341.408 337.807 341.421L337.116 346.063C338.386 346.513 339.4 347.589 339.709 349.001C340.024 350.437 339.529 351.863 338.528 352.802L340.061 355.909C340.079 355.905 340.098 355.901 340.117 355.896C341.657 355.559 343.181 356.462 343.641 357.941L348.389 357.995C348.633 356.763 349.581 355.73 350.884 355.437L351.078 349.745C349.321 349.392 347.849 348.035 347.44 346.169C346.889 343.652 348.484 341.164 351 340.613C353.518 340.062 356.006 341.655 356.557 344.174C357.109 346.69 355.515 349.176 352.997 349.728C352.906 349.749 352.815 349.765 352.724 349.779L352.53 355.494C353.45 355.769 354.229 356.442 354.614 357.359L361.856 355.758C361.9 354.305 362.794 352.992 364.151 352.426L364.687 344.126ZM369.287 356.404C369.248 356.676 369.179 356.942 369.084 357.198L378.196 362.532C378.605 362.101 379.122 361.761 379.714 361.563L379.364 358.559C377.725 358.579 376.235 357.512 375.751 355.907L369.287 356.404Z" fill="#ECB900"/>
<path d="M188.083 322.527C181.366 307.64 166.297 297.836 149.957 297.836C133.436 297.836 118.549 307.64 111.65 322.527L71.3458 411.154C68.6227 417.024 71.1644 423.983 76.9739 426.525C82.7834 429.278 89.6826 426.706 92.2243 420.867L132.71 331.967C135.796 325.25 142.514 321.074 149.957 321.074C157.219 321.074 164.118 325.25 167.204 331.967L207.509 420.867C209.506 425.073 213.682 427.645 218.039 427.645C219.673 427.645 221.307 427.281 222.759 426.525C228.569 423.983 231.11 417.024 228.569 411.154L188.083 322.527ZM149.957 365.009C138.52 365.009 129.261 374.269 129.261 385.707C129.261 397.144 138.52 406.403 149.957 406.403C161.395 406.403 170.654 397.144 170.654 385.707C170.654 374.269 161.395 365.009 149.957 365.009ZM259.251 297.836C252.896 297.836 247.813 303.131 247.813 309.486V415.995C247.813 422.531 252.896 427.645 259.251 427.645C265.605 427.645 270.87 422.531 270.87 415.995V309.486C270.87 303.131 265.605 297.836 259.251 297.836ZM572.244 297.836H458.956C452.602 297.836 447.518 303.101 447.518 309.455C447.518 315.809 452.602 320.893 458.956 320.893H572.244C578.598 320.893 583.863 315.809 583.863 309.455C583.863 303.101 578.598 297.836 572.244 297.836ZM572.244 404.588H458.956C452.602 404.588 447.518 409.671 447.518 416.026C447.518 422.561 452.602 427.645 458.956 427.645H572.244C578.598 427.645 583.863 422.561 583.863 416.026C583.863 409.671 578.598 404.588 572.244 404.588ZM572.244 351.212H458.956C452.602 351.212 447.518 356.295 447.518 362.649C447.518 369.004 452.602 374.269 458.956 374.269H572.244C578.598 374.269 583.863 369.004 583.863 362.649C583.863 356.295 578.598 351.212 572.244 351.212ZM734.186 297.836C727.651 297.836 722.567 303.131 722.567 309.486V389.277L628.706 300.953C625.438 297.655 620.536 296.928 616.36 298.744C612.003 300.589 609.28 304.765 609.28 309.304V415.995C609.28 422.531 614.545 427.645 620.899 427.645C627.253 427.645 632.337 422.531 632.337 415.995V336.082L726.198 424.528C728.377 426.555 731.282 427.645 734.186 427.645C735.639 427.645 737.273 427.281 738.725 426.737C742.901 424.891 745.624 420.716 745.624 415.995V309.486C745.624 303.131 740.541 297.836 734.186 297.836ZM838.034 320.893H847.111C862.361 320.893 874.707 325.25 883.058 333.269C887.597 337.807 895.041 337.626 899.398 333.087C903.755 328.518 903.755 321.256 899.216 316.717C886.507 304.372 868.534 297.836 847.111 297.836H838.034C816.61 297.836 798.637 304.372 785.929 316.717C779.937 322.708 775.217 329.789 772.131 337.807C769.044 345.462 767.41 353.996 767.41 362.74C767.41 371.666 769.044 380.018 772.131 387.855C775.217 395.873 779.937 402.954 785.929 408.763C798.637 421.109 816.61 427.645 838.034 427.645H847.111C868.353 427.645 886.144 421.29 898.853 409.126C903.573 404.588 903.573 397.326 899.216 392.756C894.859 388.036 887.597 388.036 882.876 392.394C874.525 400.412 862.18 404.588 847.111 404.588H838.034C808.804 404.588 790.467 388.581 790.467 362.74C790.467 337.081 808.804 320.893 838.034 320.893ZM1045.36 299.107C1039.74 296.202 1032.84 298.562 1029.93 304.221L1013.59 336.385C1007.78 347.823 996.345 354.934 983.637 354.934C970.929 354.934 959.31 347.823 953.5 336.385L937.342 304.221C934.437 298.562 927.357 296.202 921.728 299.107C916.1 302.042 913.74 308.941 916.645 314.75L932.984 346.915C937.705 356.204 944.967 364.011 953.863 369.639C959.491 373.089 965.664 375.479 972.018 376.75V415.995C972.018 422.531 977.283 427.645 983.637 427.645C989.991 427.645 995.075 422.531 995.075 415.995V376.75C1001.61 375.479 1007.6 373.089 1013.23 369.639C1022.31 364.011 1029.39 356.204 1034.29 346.915L1050.45 314.75C1053.35 308.941 1051.17 302.042 1045.36 299.107Z" fill="white"/>
<path d="M338.258 458.373H359.252V461.948H341.936V473.442H359.099V477.017H341.936V491.473H359.099V495.049H338.258V458.373ZM448.62 465.141L445.725 467.363C444.133 465.286 442.217 463.711 439.978 462.638C437.748 461.565 435.296 461.029 432.614 461.029C429.694 461.029 426.986 461.736 424.492 463.14C421.997 464.545 420.074 466.435 418.703 468.802C417.332 471.169 416.643 473.842 416.643 476.796C416.643 481.274 418.175 485.012 421.24 488C424.305 490.997 428.17 492.495 432.844 492.495C437.978 492.495 442.268 490.486 445.725 486.467L448.62 488.664C446.789 490.988 444.508 492.793 441.775 494.062C439.042 495.33 435.985 495.969 432.614 495.969C426.195 495.969 421.129 493.832 417.426 489.558C414.318 485.957 412.76 481.598 412.76 476.498C412.76 471.135 414.642 466.614 418.405 462.953C422.176 459.284 426.893 457.453 432.563 457.453C435.985 457.453 439.076 458.126 441.834 459.471C444.593 460.824 446.857 462.715 448.62 465.141ZM504.826 458.373H508.504V491.473H522.653V495.049H504.826V458.373ZM594.755 457.453C600.305 457.453 604.954 459.309 608.691 463.013C612.429 466.716 614.302 471.279 614.302 476.694C614.302 482.066 612.437 486.621 608.708 490.358C604.971 494.096 600.425 495.969 595.052 495.969C589.621 495.969 585.032 494.104 581.295 490.384C577.557 486.663 575.684 482.16 575.684 476.873C575.684 473.348 576.535 470.087 578.238 467.074C579.941 464.068 582.265 461.71 585.211 460.007C588.148 458.305 591.332 457.453 594.755 457.453ZM594.916 461.029C592.209 461.029 589.638 461.736 587.203 463.149C584.777 464.562 582.878 466.46 581.507 468.853C580.145 471.254 579.464 473.919 579.464 476.864C579.464 481.215 580.971 484.892 583.993 487.889C587.016 490.895 590.66 492.393 594.916 492.393C597.768 492.393 600.399 491.703 602.817 490.324C605.243 488.945 607.133 487.055 608.487 484.663C609.841 482.27 610.522 479.614 610.522 476.685C610.522 473.774 609.841 471.143 608.487 468.793C607.133 466.443 605.218 464.562 602.757 463.149C600.297 461.736 597.683 461.029 594.916 461.029ZM670.67 458.373H674.348V480.525C674.348 483.147 674.399 484.79 674.501 485.437C674.68 486.885 675.106 488.094 675.77 489.064C676.434 490.035 677.455 490.852 678.834 491.507C680.214 492.163 681.601 492.495 683.006 492.495C684.215 492.495 685.381 492.24 686.497 491.721C687.603 491.21 688.54 490.494 689.289 489.575C690.038 488.664 690.583 487.557 690.932 486.263C691.179 485.327 691.307 483.42 691.307 480.525V458.373H694.985V480.508C694.985 483.786 694.661 486.433 694.022 488.451C693.384 490.469 692.098 492.231 690.183 493.721C688.259 495.22 685.935 495.969 683.202 495.969C680.239 495.969 677.702 495.262 675.591 493.849C673.471 492.436 672.057 490.571 671.342 488.238C670.891 486.808 670.67 484.237 670.67 480.508V458.373ZM752.817 495.049V458.373H760.428C765.911 458.373 769.895 458.815 772.373 459.692C775.932 460.944 778.716 463.098 780.716 466.18C782.717 469.253 783.722 472.914 783.722 477.171C783.722 480.848 782.93 484.075 781.338 486.868C779.754 489.66 777.685 491.729 775.157 493.057C772.62 494.385 769.061 495.049 764.489 495.049H752.817ZM756.342 491.576H760.573C765.63 491.576 769.129 491.261 771.087 490.631C773.837 489.728 776.008 488.119 777.583 485.786C779.158 483.445 779.942 480.593 779.942 477.222C779.942 473.689 779.09 470.658 777.379 468.155C775.676 465.643 773.292 463.924 770.245 462.995C767.955 462.297 764.183 461.948 758.93 461.948H756.342V491.576Z" fill="white"/>
</svg>
